<svg height='100px' width='100px'  fill="#000000" xmlns="http://www.w3.org/2000/svg" xmlns:xlink="http://www.w3.org/1999/xlink" version="1.1" x="0px" y="0px" viewBox="0 0 512 512" style="enable-background:new 0 0 512 512;" xml:space="preserve"><path d="M434.84,233.013c-56.544-45.402-97.084-41.206-121.142-29.691c-9.949,4.755-18.448,12.033-25.155,20.979  c-5.138-49.442,5.338-103.198,12.682-132.647c4.116-16.438-5.252-33.515-21.29-38.864c-8.765-2.936-18.381-1.96-26.4,2.573  c-24.803,14.052-80.655,59.595-77.603,183.549c-17.511-8.64-51.576-21.752-82.269-11.435c-20.953,7.061-36.406,23.641-45.898,49.296  C21.134,348.664,60.84,386.295,79.15,399.14c0.154,0.109,0.35,0.067,0.51,0.161c1.002,0.594,2.092,0.954,3.256,1.025  c0.141,0.008,0.263,0.128,0.404,0.128c0.062,0,0.116-0.042,0.179-0.043c1.004-0.02,2.009-0.214,2.962-0.666  c0.031-0.014,0.048-0.044,0.079-0.06c0.173-0.084,0.292-0.247,0.458-0.346c0.796-0.48,1.478-1.059,2.018-1.764  c0.07-0.091,0.183-0.121,0.248-0.216c0.18-0.255,0.218-0.553,0.36-0.822c0.245-0.464,0.478-0.908,0.619-1.413  c0.124-0.445,0.159-0.879,0.195-1.333c0.041-0.47,0.078-0.92,0.026-1.396c-0.055-0.502-0.208-0.965-0.367-1.446  c-0.099-0.298-0.09-0.61-0.23-0.9c-4.808-10.033-7.434-21.024-7.824-32.645c-1.065-33.985,7.434-58.699,25.247-73.46  c14.318-11.869,32.556-15.542,47.46-16.198c-8.658,5.731-17.795,13.927-24.927,25.469c-13.519,21.902-16.092,49.722-7.647,82.704  c18.221,71.136,85.605,83.769,124.158,84.966c0.053,0,0.124,0,0.177,0c1.898,0,3.744-0.985,5.11-2.315  c1.419-1.366,2.218-3.513,2.218-5.482c0-13.546-5.358-26.498-15.081-36.469c-20.758-21.264-30.197-44.515-28.032-69.131  c0.09-1.022,0.328-1.815,0.435-2.811c5.764,9.282,12.028,18.16,19.294,26.106c43.947,48.098,90.484,59.613,125.01,59.613  c31.385,0,52.818-9.536,53.261-9.74c2.023-0.931,3.513-2.741,4.027-4.897l3.815-15.852c0.373-1.535,0.231-3.149-0.39-4.595  c-8.747-20.173-58.726-58.761-64.137-62.895l-17.032-14.247c-10.361-8.658-17.635-19.552-21.166-31.802  c-6.015-21.157,7.061-28.946,8.711-29.842c13.927-7.735,27.855-9.137,42.616-4.302c50.227,16.5,88.692,99.364,89.082,100.198  c1.26,2.723,4.01,4.373,7.026,4.231c2.981-0.177,5.571-2.165,6.494-5.012C470.182,344.14,489.893,277.182,434.84,233.013z   M260.703,68.013c4.453-2.528,9.776-3.043,14.619-1.437c8.906,2.972,14.087,12.437,11.816,21.565  c-8.481,33.931-21.113,99.266-10.645,155.517c0.142,0.75,0.478,1.404,0.816,2.049c-1.636,4.76-2.973,9.688-3.744,14.85  l-2.381,15.984c-8.714-1.871-22.762-3.166-36.745,2.55l-43.446-21.107l-0.018-6.538c0-0.083-0.045-0.153-0.049-0.236  c-0.001-0.049,0.033-0.088,0.031-0.136C184.005,125.435,237.408,81.204,260.703,68.013z M98.08,272.684  c-21.503,17.769-31.776,46.422-30.552,85.179c0.128,4.092,0.977,7.972,1.585,11.925c-13.751-17.76-23.312-45.881-7.723-87.967  c7.895-21.317,20.297-34.96,36.868-40.549c27.529-9.302,60.277,4.969,74.42,12.352C155.073,251.977,122.66,252.392,98.08,272.684z   M196.247,346.216c-2.555,29.026,8.25,56.127,32.113,80.548c5.234,5.385,8.729,11.931,10.184,19.152  c-35.094-2.599-87.627-16.367-102.282-73.602c-7.416-28.928-5.447-52.924,5.837-71.314c12.822-20.896,34.212-28.693,40.944-30.714  l37.302,18.12C206.906,300.307,198.586,319.389,196.247,346.216z M457.905,327.888c-15.205-27.198-47.371-76.051-88.177-89.464  c-18.558-6.094-36.779-4.285-54.006,5.278c-8.8,4.489-23.419,20.022-15.755,46.981c4.24,14.744,13.129,28.103,25.708,38.624  l17.281,14.451c19.25,14.708,51.061,41.862,58.868,55.337l-2.324,9.643c-16.181,6.156-89.242,27.828-158.329-47.77  c-10.172-11.126-18.679-23.911-25.574-37.818c4.071-12.894,10.208-22.525,18.867-27.951c13.484-8.445,29.54-5.633,36.548-3.815  c4.347,16.775,25.211,75.377,109.379,108.563c3.69,1.446,7.966-0.355,9.421-4.098c1.473-3.726-0.355-7.948-4.098-9.421  c-84.056-33.145-99.378-92.357-101.173-100.918l3.398-22.805c3.123-20.882,15.098-38.181,32.042-46.271  c20.261-9.705,55.142-12.712,105.777,27.917C458.26,270.44,460.442,306.003,457.905,327.888z"></path></svg>